<svg width="16" height="16" viewBox="0 0 16 16" fill="none" xmlns="http://www.w3.org/2000/svg">
<path d="M7.35386 2.46154C7.35386 2.33913 7.30523 2.22174 7.21867 2.13518C7.13212 2.04863 7.01472 2 6.89232 2C6.76991 2 6.65252 2.04863 6.56596 2.13518C6.4794 2.22174 6.43078 2.33913 6.43078 2.46154V3.2C6.43078 3.46677 6.49724 3.71785 6.61539 3.93846C6.22018 4.05372 5.86293 4.27244 5.58056 4.57201C5.29819 4.87158 5.10096 5.24113 5.00924 5.64246C4.80535 5.57619 4.62766 5.44709 4.50164 5.27364C4.37562 5.1002 4.30773 4.89132 4.3077 4.67692V3.38462C4.3077 3.26221 4.25908 3.14481 4.17252 3.05826C4.08596 2.9717 3.96857 2.92308 3.84616 2.92308C3.72376 2.92308 3.60636 2.9717 3.51981 3.05826C3.43325 3.14481 3.38462 3.26221 3.38462 3.38462V4.67692C3.38453 5.12703 3.54107 5.56315 3.8274 5.91044C4.11373 6.25774 4.51199 6.49457 4.95386 6.58031V7.53846H2.92309C2.80068 7.53846 2.68328 7.58709 2.59673 7.67364C2.51017 7.7602 2.46155 7.87759 2.46155 8C2.46155 8.12241 2.51017 8.2398 2.59673 8.32636C2.68328 8.41291 2.80068 8.46154 2.92309 8.46154H4.95386V10.0308C4.95386 10.1305 4.95847 10.2292 4.9677 10.3262C4.52812 10.3894 4.12608 10.6091 3.83531 10.9448C3.54454 11.2805 3.38453 11.7097 3.38462 12.1538V13.5385C3.38462 13.6609 3.43325 13.7783 3.51981 13.8648C3.60636 13.9514 3.72376 14 3.84616 14C3.96857 14 4.08596 13.9514 4.17252 13.8648C4.25908 13.7783 4.3077 13.6609 4.3077 13.5385V12.1538C4.30756 11.9144 4.4005 11.6842 4.56688 11.512C4.73326 11.3397 4.96006 11.2389 5.19939 11.2308C5.43401 11.7792 5.82447 12.2466 6.32233 12.5751C6.82018 12.9036 7.40353 13.0788 8.00001 13.0788C8.59648 13.0788 9.17984 12.9036 9.67769 12.5751C10.1756 12.2466 10.566 11.7792 10.8006 11.2308C11.04 11.2389 11.2668 11.3397 11.4331 11.512C11.5995 11.6842 11.6925 11.9144 11.6923 12.1538V13.5385C11.6923 13.6609 11.7409 13.7783 11.8275 13.8648C11.9141 13.9514 12.0314 14 12.1539 14C12.2763 14 12.3937 13.9514 12.4802 13.8648C12.5668 13.7783 12.6154 13.6609 12.6154 13.5385V12.1538C12.6155 11.7097 12.4555 11.2805 12.1647 10.9448C11.8739 10.6091 11.4719 10.3894 11.0323 10.3262C11.0417 10.228 11.0463 10.1294 11.0462 10.0308V8.46154H13.0769C13.1993 8.46154 13.3167 8.41291 13.4033 8.32636C13.4898 8.2398 13.5385 8.12241 13.5385 8C13.5385 7.87759 13.4898 7.7602 13.4033 7.67364C13.3167 7.58709 13.1993 7.53846 13.0769 7.53846H11.0462V6.58031C11.488 6.49457 11.8863 6.25774 12.1726 5.91044C12.4589 5.56315 12.6155 5.12703 12.6154 4.67692V3.38462C12.6154 3.26221 12.5668 3.14481 12.4802 3.05826C12.3937 2.9717 12.2763 2.92308 12.1539 2.92308C12.0314 2.92308 11.9141 2.9717 11.8275 3.05826C11.7409 3.14481 11.6923 3.26221 11.6923 3.38462V4.67692C11.6923 5.12923 11.3969 5.51138 10.9899 5.64338C10.8984 5.242 10.7013 4.87233 10.4191 4.5726C10.1369 4.27286 9.77978 4.05394 9.38462 3.93846C9.50552 3.71111 9.5686 3.4575 9.56832 3.2V2.46154C9.56832 2.33913 9.51969 2.22174 9.43314 2.13518C9.34658 2.04863 9.22919 2 9.10678 2C8.98437 2 8.86698 2.04863 8.78042 2.13518C8.69387 2.22174 8.64524 2.33913 8.64524 2.46154V3.2C8.64524 3.37137 8.57716 3.53572 8.45599 3.6569C8.33481 3.77808 8.17046 3.84615 7.99909 3.84615C7.82772 3.84615 7.66336 3.77808 7.54219 3.6569C7.42101 3.53572 7.35293 3.37137 7.35293 3.2V2.46154H7.35386Z" fill="#889096"/>
</svg>
