<svg width="20" height="20" viewBox="0 0 20 20" fill="none" xmlns="http://www.w3.org/2000/svg">
<path d="M15.1316 16.5455H7.60526V6.36364H15.1316M15.1316 4.90909H7.60526C7.24234 4.90909 6.89427 5.06234 6.63764 5.33512C6.38101 5.6079 6.23684 5.97787 6.23684 6.36364V16.5455C6.23684 16.9312 6.38101 17.3012 6.63764 17.574C6.89427 17.8468 7.24234 18 7.60526 18H15.1316C15.4945 18 15.8426 17.8468 16.0992 17.574C16.3558 17.3012 16.5 16.9312 16.5 16.5455V6.36364C16.5 5.97787 16.3558 5.6079 16.0992 5.33512C15.8426 5.06234 15.4945 4.90909 15.1316 4.90909ZM13.0789 2H4.86842C4.50549 2 4.15743 2.15325 3.9008 2.42603C3.64417 2.69881 3.5 3.06878 3.5 3.45455V13.6364H4.86842V3.45455H13.0789V2Z" fill="#11181C"/>
</svg>
