<svg width="65" height="24" viewBox="0 0 65 24" fill="none" xmlns="http://www.w3.org/2000/svg">
<path d="M0.969184 11.0537L6.33999 1.05369C6.68848 0.404817 7.36541 0 8.10194 0H56.8969C57.6334 0 58.3103 0.404817 58.6588 1.05369L64.0296 11.0537C64.347 11.6446 64.347 12.3554 64.0296 12.9463L58.6588 22.9463C58.3103 23.5952 57.6334 24 56.8969 24H8.10195C7.36541 24 6.68848 23.5952 6.33999 22.9463L0.969184 12.9463C0.651793 12.3554 0.651793 11.6446 0.969184 11.0537Z" fill="#30A46C"/>
<path d="M15.9132 16.144C15.3372 16.144 14.8532 16.036 14.4612 15.82C14.0772 15.596 13.7452 15.3 13.4652 14.932L14.1492 14.38C14.3892 14.684 14.6572 14.92 14.9532 15.088C15.2492 15.248 15.5932 15.328 15.9852 15.328C16.3932 15.328 16.7092 15.24 16.9332 15.064C17.1652 14.888 17.2812 14.64 17.2812 14.32C17.2812 14.08 17.2012 13.876 17.0412 13.708C16.8892 13.532 16.6092 13.412 16.2012 13.348L15.7092 13.276C15.4212 13.236 15.1572 13.176 14.9172 13.096C14.6772 13.008 14.4652 12.896 14.2812 12.76C14.1052 12.616 13.9652 12.44 13.8612 12.232C13.7652 12.024 13.7172 11.776 13.7172 11.488C13.7172 11.184 13.7732 10.92 13.8852 10.696C13.9972 10.464 14.1492 10.272 14.3412 10.12C14.5412 9.968 14.7772 9.856 15.0492 9.784C15.3212 9.704 15.6132 9.664 15.9252 9.664C16.4292 9.664 16.8492 9.752 17.1852 9.928C17.5292 10.104 17.8292 10.348 18.0852 10.66L17.4492 11.236C17.3132 11.044 17.1132 10.872 16.8492 10.72C16.5852 10.56 16.2532 10.48 15.8532 10.48C15.4532 10.48 15.1492 10.568 14.9412 10.744C14.7412 10.912 14.6412 11.144 14.6412 11.44C14.6412 11.744 14.7412 11.964 14.9412 12.1C15.1492 12.236 15.4452 12.336 15.8292 12.4L16.3092 12.472C16.9972 12.576 17.4852 12.776 17.7732 13.072C18.0612 13.36 18.2052 13.74 18.2052 14.212C18.2052 14.812 18.0012 15.284 17.5932 15.628C17.1852 15.972 16.6252 16.144 15.9132 16.144ZM22.2289 16.144C21.8049 16.144 21.4209 16.068 21.0769 15.916C20.7409 15.764 20.4489 15.548 20.2009 15.268C19.9609 14.98 19.7729 14.64 19.6369 14.248C19.5089 13.848 19.4449 13.4 19.4449 12.904C19.4449 12.416 19.5089 11.972 19.6369 11.572C19.7729 11.172 19.9609 10.832 20.2009 10.552C20.4489 10.264 20.7409 10.044 21.0769 9.892C21.4209 9.74 21.8049 9.664 22.2289 9.664C22.6449 9.664 23.0169 9.74 23.3449 9.892C23.6729 10.044 23.9529 10.256 24.1849 10.528C24.4169 10.792 24.5929 11.108 24.7129 11.476C24.8409 11.844 24.9049 12.248 24.9049 12.688V13.144H20.4529V13.432C20.4529 13.696 20.4929 13.944 20.5729 14.176C20.6609 14.4 20.7809 14.596 20.9329 14.764C21.0929 14.932 21.2849 15.064 21.5089 15.16C21.7409 15.256 22.0009 15.304 22.2889 15.304C22.6809 15.304 23.0209 15.212 23.3089 15.028C23.6049 14.844 23.8329 14.58 23.9929 14.236L24.6769 14.728C24.4769 15.152 24.1649 15.496 23.7409 15.76C23.3169 16.016 22.8129 16.144 22.2289 16.144ZM22.2289 10.468C21.9649 10.468 21.7249 10.516 21.5089 10.612C21.2929 10.7 21.1049 10.828 20.9449 10.996C20.7929 11.164 20.6729 11.364 20.5849 11.596C20.4969 11.82 20.4529 12.068 20.4529 12.34V12.424H23.8729V12.292C23.8729 11.74 23.7209 11.3 23.4169 10.972C23.1209 10.636 22.7249 10.468 22.2289 10.468ZM26.4868 16V9.808H27.4468V10.816H27.4948C27.6468 10.464 27.8588 10.184 28.1308 9.976C28.4108 9.768 28.7828 9.664 29.2468 9.664C29.8868 9.664 30.3908 9.872 30.7588 10.288C31.1348 10.696 31.3228 11.276 31.3228 12.028V16H30.3628V12.196C30.3628 11.084 29.8948 10.528 28.9588 10.528C28.7668 10.528 28.5788 10.552 28.3948 10.6C28.2188 10.648 28.0588 10.72 27.9148 10.816C27.7708 10.912 27.6548 11.036 27.5668 11.188C27.4868 11.332 27.4468 11.504 27.4468 11.704V16H26.4868ZM33.7871 8.356C33.5791 8.356 33.4271 8.308 33.3311 8.212C33.2431 8.108 33.1991 7.976 33.1991 7.816V7.66C33.1991 7.5 33.2431 7.372 33.3311 7.276C33.4271 7.172 33.5791 7.12 33.7871 7.12C33.9951 7.12 34.1431 7.172 34.2311 7.276C34.3271 7.372 34.3751 7.5 34.3751 7.66V7.816C34.3751 7.976 34.3271 8.108 34.2311 8.212C34.1431 8.308 33.9951 8.356 33.7871 8.356ZM33.3071 9.808H34.2671V16H33.3071V9.808ZM38.6471 16.144C38.2311 16.144 37.8511 16.068 37.5071 15.916C37.1631 15.764 36.8671 15.548 36.6191 15.268C36.3791 14.98 36.1911 14.64 36.0551 14.248C35.9191 13.848 35.8511 13.4 35.8511 12.904C35.8511 12.416 35.9191 11.972 36.0551 11.572C36.1911 11.172 36.3791 10.832 36.6191 10.552C36.8671 10.264 37.1631 10.044 37.5071 9.892C37.8511 9.74 38.2311 9.664 38.6471 9.664C39.0631 9.664 39.4391 9.74 39.7751 9.892C40.1191 10.044 40.4151 10.264 40.6631 10.552C40.9111 10.832 41.1031 11.172 41.2391 11.572C41.3751 11.972 41.4431 12.416 41.4431 12.904C41.4431 13.4 41.3751 13.848 41.2391 14.248C41.1031 14.64 40.9111 14.98 40.6631 15.268C40.4151 15.548 40.1191 15.764 39.7751 15.916C39.4391 16.068 39.0631 16.144 38.6471 16.144ZM38.6471 15.292C39.1671 15.292 39.5911 15.132 39.9191 14.812C40.2471 14.492 40.4111 14.004 40.4111 13.348V12.46C40.4111 11.804 40.2471 11.316 39.9191 10.996C39.5911 10.676 39.1671 10.516 38.6471 10.516C38.1271 10.516 37.7031 10.676 37.3751 10.996C37.0471 11.316 36.8831 11.804 36.8831 12.46V13.348C36.8831 14.004 37.0471 14.492 37.3751 14.812C37.7031 15.132 38.1271 15.292 38.6471 15.292ZM43.022 16V9.808H43.982V10.948H44.042C44.154 10.652 44.354 10.388 44.642 10.156C44.93 9.924 45.326 9.808 45.83 9.808H46.202V10.768H45.638C45.118 10.768 44.71 10.868 44.414 11.068C44.126 11.26 43.982 11.504 43.982 11.8V16H43.022ZM47.0018 12.868V11.836H50.1338V12.868H47.0018Z" fill="white"/>
</svg>
