<svg width="65" height="24" viewBox="0 0 65 24" fill="none" xmlns="http://www.w3.org/2000/svg">
<path d="M0.969184 11.0537L6.33999 1.05369C6.68848 0.404817 7.36541 0 8.10194 0H56.8969C57.6334 0 58.3103 0.404817 58.6588 1.05369L64.0296 11.0537C64.347 11.6446 64.347 12.3554 64.0296 12.9463L58.6588 22.9463C58.3103 23.5952 57.6334 24 56.8969 24H8.10195C7.36541 24 6.68848 23.5952 6.33999 22.9463L0.969184 12.9463C0.651793 12.3554 0.651793 11.6446 0.969184 11.0537Z" fill="#FFB224"/>
<path d="M14.393 16V9.808H15.353V10.816H15.401C15.473 10.656 15.553 10.508 15.641 10.372C15.737 10.228 15.849 10.104 15.977 10C16.113 9.896 16.269 9.816 16.445 9.76C16.621 9.696 16.829 9.664 17.069 9.664C17.477 9.664 17.853 9.764 18.197 9.964C18.541 10.156 18.797 10.476 18.965 10.924H18.989C19.101 10.588 19.309 10.296 19.613 10.048C19.925 9.792 20.345 9.664 20.873 9.664C21.505 9.664 21.997 9.872 22.349 10.288C22.709 10.696 22.889 11.276 22.889 12.028V16H21.929V12.196C21.929 11.644 21.821 11.228 21.605 10.948C21.389 10.668 21.045 10.528 20.573 10.528C20.381 10.528 20.197 10.552 20.021 10.6C19.853 10.648 19.701 10.72 19.565 10.816C19.429 10.912 19.321 11.036 19.241 11.188C19.161 11.332 19.121 11.504 19.121 11.704V16H18.161V12.196C18.161 11.644 18.053 11.228 17.837 10.948C17.621 10.668 17.285 10.528 16.829 10.528C16.637 10.528 16.453 10.552 16.277 10.6C16.101 10.648 15.945 10.72 15.809 10.816C15.673 10.912 15.561 11.036 15.473 11.188C15.393 11.332 15.353 11.504 15.353 11.704V16H14.393ZM25.3496 8.356C25.1416 8.356 24.9896 8.308 24.8936 8.212C24.8056 8.108 24.7616 7.976 24.7616 7.816V7.66C24.7616 7.5 24.8056 7.372 24.8936 7.276C24.9896 7.172 25.1416 7.12 25.3496 7.12C25.5576 7.12 25.7056 7.172 25.7936 7.276C25.8896 7.372 25.9376 7.5 25.9376 7.66V7.816C25.9376 7.976 25.8896 8.108 25.7936 8.212C25.7056 8.308 25.5576 8.356 25.3496 8.356ZM24.8696 9.808H25.8296V16H24.8696V9.808ZM31.8296 14.992H31.7816C31.4056 15.76 30.8016 16.144 29.9696 16.144C29.5856 16.144 29.2376 16.068 28.9256 15.916C28.6136 15.764 28.3456 15.548 28.1216 15.268C27.9056 14.988 27.7376 14.648 27.6176 14.248C27.5056 13.848 27.4496 13.4 27.4496 12.904C27.4496 12.408 27.5056 11.96 27.6176 11.56C27.7376 11.16 27.9056 10.82 28.1216 10.54C28.3456 10.26 28.6136 10.044 28.9256 9.892C29.2376 9.74 29.5856 9.664 29.9696 9.664C30.4016 9.664 30.7696 9.76 31.0736 9.952C31.3856 10.136 31.6216 10.424 31.7816 10.816H31.8296V7.12H32.7896V16H31.8296V14.992ZM30.2336 15.28C30.4496 15.28 30.6536 15.252 30.8456 15.196C31.0456 15.14 31.2176 15.06 31.3616 14.956C31.5056 14.844 31.6176 14.712 31.6976 14.56C31.7856 14.4 31.8296 14.22 31.8296 14.02V11.716C31.8296 11.548 31.7856 11.392 31.6976 11.248C31.6176 11.096 31.5056 10.968 31.3616 10.864C31.2176 10.76 31.0456 10.68 30.8456 10.624C30.6536 10.56 30.4496 10.528 30.2336 10.528C29.6896 10.528 29.2616 10.7 28.9496 11.044C28.6376 11.38 28.4816 11.824 28.4816 12.376V13.432C28.4816 13.984 28.6376 14.432 28.9496 14.776C29.2616 15.112 29.6896 15.28 30.2336 15.28ZM38.7905 14.992H38.7425C38.3665 15.76 37.7625 16.144 36.9305 16.144C36.5465 16.144 36.1985 16.068 35.8865 15.916C35.5745 15.764 35.3065 15.548 35.0825 15.268C34.8665 14.988 34.6985 14.648 34.5785 14.248C34.4665 13.848 34.4105 13.4 34.4105 12.904C34.4105 12.408 34.4665 11.96 34.5785 11.56C34.6985 11.16 34.8665 10.82 35.0825 10.54C35.3065 10.26 35.5745 10.044 35.8865 9.892C36.1985 9.74 36.5465 9.664 36.9305 9.664C37.3625 9.664 37.7305 9.76 38.0345 9.952C38.3465 10.136 38.5825 10.424 38.7425 10.816H38.7905V7.12H39.7505V16H38.7905V14.992ZM37.1945 15.28C37.4105 15.28 37.6145 15.252 37.8065 15.196C38.0065 15.14 38.1785 15.06 38.3225 14.956C38.4665 14.844 38.5785 14.712 38.6585 14.56C38.7465 14.4 38.7905 14.22 38.7905 14.02V11.716C38.7905 11.548 38.7465 11.392 38.6585 11.248C38.5785 11.096 38.4665 10.968 38.3225 10.864C38.1785 10.76 38.0065 10.68 37.8065 10.624C37.6145 10.56 37.4105 10.528 37.1945 10.528C36.6505 10.528 36.2225 10.7 35.9105 11.044C35.5985 11.38 35.4425 11.824 35.4425 12.376V13.432C35.4425 13.984 35.5985 14.432 35.9105 14.776C36.2225 15.112 36.6505 15.28 37.1945 15.28ZM42.8115 16C42.4755 16 42.2195 15.908 42.0435 15.724C41.8755 15.532 41.7915 15.292 41.7915 15.004V7.12H42.7515V15.16H43.6635V16H42.8115ZM47.389 16.144C46.965 16.144 46.581 16.068 46.237 15.916C45.901 15.764 45.609 15.548 45.361 15.268C45.121 14.98 44.933 14.64 44.797 14.248C44.669 13.848 44.605 13.4 44.605 12.904C44.605 12.416 44.669 11.972 44.797 11.572C44.933 11.172 45.121 10.832 45.361 10.552C45.609 10.264 45.901 10.044 46.237 9.892C46.581 9.74 46.965 9.664 47.389 9.664C47.805 9.664 48.177 9.74 48.505 9.892C48.833 10.044 49.113 10.256 49.345 10.528C49.577 10.792 49.753 11.108 49.873 11.476C50.001 11.844 50.065 12.248 50.065 12.688V13.144H45.613V13.432C45.613 13.696 45.653 13.944 45.733 14.176C45.821 14.4 45.941 14.596 46.093 14.764C46.253 14.932 46.445 15.064 46.669 15.16C46.901 15.256 47.161 15.304 47.449 15.304C47.841 15.304 48.181 15.212 48.469 15.028C48.765 14.844 48.993 14.58 49.153 14.236L49.837 14.728C49.637 15.152 49.325 15.496 48.901 15.76C48.477 16.016 47.973 16.144 47.389 16.144ZM47.389 10.468C47.125 10.468 46.885 10.516 46.669 10.612C46.453 10.7 46.265 10.828 46.105 10.996C45.953 11.164 45.833 11.364 45.745 11.596C45.657 11.82 45.613 12.068 45.613 12.34V12.424H49.033V12.292C49.033 11.74 48.881 11.3 48.577 10.972C48.281 10.636 47.885 10.468 47.389 10.468Z" fill="#11181C"/>
</svg>
