<svg width="61" height="24" viewBox="0 0 61 24" fill="none" xmlns="http://www.w3.org/2000/svg">
<path d="M0.913885 11.1005L5.94942 1.1005C6.2892 0.425721 6.98022 0 7.73572 0H53.2631C54.0186 0 54.7096 0.425723 55.0494 1.1005L60.0849 11.1005C60.3698 11.6663 60.3698 12.3337 60.0849 12.8995L55.0494 22.8995C54.7096 23.5743 54.0186 24 53.2631 24H7.73573C6.98023 24 6.2892 23.5743 5.94942 22.8995L0.913884 12.8995C0.628962 12.3337 0.628963 11.6663 0.913885 11.1005Z" fill="#18794E"/>
<path d="M16.1925 16.144C15.6165 16.144 15.1325 16.036 14.7405 15.82C14.3565 15.596 14.0245 15.3 13.7445 14.932L14.4285 14.38C14.6685 14.684 14.9365 14.92 15.2325 15.088C15.5285 15.248 15.8725 15.328 16.2645 15.328C16.6725 15.328 16.9885 15.24 17.2125 15.064C17.4445 14.888 17.5605 14.64 17.5605 14.32C17.5605 14.08 17.4805 13.876 17.3205 13.708C17.1685 13.532 16.8885 13.412 16.4805 13.348L15.9885 13.276C15.7005 13.236 15.4365 13.176 15.1965 13.096C14.9565 13.008 14.7445 12.896 14.5605 12.76C14.3845 12.616 14.2445 12.44 14.1405 12.232C14.0445 12.024 13.9965 11.776 13.9965 11.488C13.9965 11.184 14.0525 10.92 14.1645 10.696C14.2765 10.464 14.4285 10.272 14.6205 10.12C14.8205 9.968 15.0565 9.856 15.3285 9.784C15.6005 9.704 15.8925 9.664 16.2045 9.664C16.7085 9.664 17.1285 9.752 17.4645 9.928C17.8085 10.104 18.1085 10.348 18.3645 10.66L17.7285 11.236C17.5925 11.044 17.3925 10.872 17.1285 10.72C16.8645 10.56 16.5325 10.48 16.1325 10.48C15.7325 10.48 15.4285 10.568 15.2205 10.744C15.0205 10.912 14.9205 11.144 14.9205 11.44C14.9205 11.744 15.0205 11.964 15.2205 12.1C15.4285 12.236 15.7245 12.336 16.1085 12.4L16.5885 12.472C17.2765 12.576 17.7645 12.776 18.0525 13.072C18.3405 13.36 18.4845 13.74 18.4845 14.212C18.4845 14.812 18.2805 15.284 17.8725 15.628C17.4645 15.972 16.9045 16.144 16.1925 16.144ZM22.5082 16.144C22.0842 16.144 21.7002 16.068 21.3562 15.916C21.0202 15.764 20.7282 15.548 20.4802 15.268C20.2402 14.98 20.0522 14.64 19.9162 14.248C19.7882 13.848 19.7242 13.4 19.7242 12.904C19.7242 12.416 19.7882 11.972 19.9162 11.572C20.0522 11.172 20.2402 10.832 20.4802 10.552C20.7282 10.264 21.0202 10.044 21.3562 9.892C21.7002 9.74 22.0842 9.664 22.5082 9.664C22.9242 9.664 23.2962 9.74 23.6242 9.892C23.9522 10.044 24.2322 10.256 24.4642 10.528C24.6962 10.792 24.8722 11.108 24.9922 11.476C25.1202 11.844 25.1842 12.248 25.1842 12.688V13.144H20.7322V13.432C20.7322 13.696 20.7722 13.944 20.8522 14.176C20.9402 14.4 21.0602 14.596 21.2122 14.764C21.3722 14.932 21.5642 15.064 21.7882 15.16C22.0202 15.256 22.2802 15.304 22.5682 15.304C22.9602 15.304 23.3002 15.212 23.5882 15.028C23.8842 14.844 24.1122 14.58 24.2722 14.236L24.9562 14.728C24.7562 15.152 24.4442 15.496 24.0202 15.76C23.5962 16.016 23.0922 16.144 22.5082 16.144ZM22.5082 10.468C22.2442 10.468 22.0042 10.516 21.7882 10.612C21.5722 10.7 21.3842 10.828 21.2242 10.996C21.0722 11.164 20.9522 11.364 20.8642 11.596C20.7762 11.82 20.7322 12.068 20.7322 12.34V12.424H24.1522V12.292C24.1522 11.74 24.0002 11.3 23.6962 10.972C23.4002 10.636 23.0042 10.468 22.5082 10.468ZM26.7661 16V9.808H27.7261V10.816H27.7741C27.9261 10.464 28.1381 10.184 28.4101 9.976C28.6901 9.768 29.0621 9.664 29.5261 9.664C30.1661 9.664 30.6701 9.872 31.0381 10.288C31.4141 10.696 31.6021 11.276 31.6021 12.028V16H30.6421V12.196C30.6421 11.084 30.1741 10.528 29.2381 10.528C29.0461 10.528 28.8581 10.552 28.6741 10.6C28.4981 10.648 28.3381 10.72 28.1941 10.816C28.0501 10.912 27.9341 11.036 27.8461 11.188C27.7661 11.332 27.7261 11.504 27.7261 11.704V16H26.7661ZM34.0664 8.356C33.8584 8.356 33.7064 8.308 33.6104 8.212C33.5224 8.108 33.4784 7.976 33.4784 7.816V7.66C33.4784 7.5 33.5224 7.372 33.6104 7.276C33.7064 7.172 33.8584 7.12 34.0664 7.12C34.2744 7.12 34.4224 7.172 34.5104 7.276C34.6064 7.372 34.6544 7.5 34.6544 7.66V7.816C34.6544 7.976 34.6064 8.108 34.5104 8.212C34.4224 8.308 34.2744 8.356 34.0664 8.356ZM33.5864 9.808H34.5464V16H33.5864V9.808ZM38.9264 16.144C38.5104 16.144 38.1304 16.068 37.7864 15.916C37.4424 15.764 37.1464 15.548 36.8984 15.268C36.6584 14.98 36.4704 14.64 36.3344 14.248C36.1984 13.848 36.1304 13.4 36.1304 12.904C36.1304 12.416 36.1984 11.972 36.3344 11.572C36.4704 11.172 36.6584 10.832 36.8984 10.552C37.1464 10.264 37.4424 10.044 37.7864 9.892C38.1304 9.74 38.5104 9.664 38.9264 9.664C39.3424 9.664 39.7184 9.74 40.0544 9.892C40.3984 10.044 40.6944 10.264 40.9424 10.552C41.1904 10.832 41.3824 11.172 41.5184 11.572C41.6544 11.972 41.7224 12.416 41.7224 12.904C41.7224 13.4 41.6544 13.848 41.5184 14.248C41.3824 14.64 41.1904 14.98 40.9424 15.268C40.6944 15.548 40.3984 15.764 40.0544 15.916C39.7184 16.068 39.3424 16.144 38.9264 16.144ZM38.9264 15.292C39.4464 15.292 39.8704 15.132 40.1984 14.812C40.5264 14.492 40.6904 14.004 40.6904 13.348V12.46C40.6904 11.804 40.5264 11.316 40.1984 10.996C39.8704 10.676 39.4464 10.516 38.9264 10.516C38.4064 10.516 37.9824 10.676 37.6544 10.996C37.3264 11.316 37.1624 11.804 37.1624 12.46V13.348C37.1624 14.004 37.3264 14.492 37.6544 14.812C37.9824 15.132 38.4064 15.292 38.9264 15.292ZM43.3013 16V9.808H44.2613V10.948H44.3213C44.4333 10.652 44.6333 10.388 44.9213 10.156C45.2093 9.924 45.6053 9.808 46.1093 9.808H46.4813V10.768H45.9173C45.3973 10.768 44.9893 10.868 44.6933 11.068C44.4053 11.26 44.2613 11.504 44.2613 11.8V16H43.3013Z" fill="white"/>
</svg>
