<svg width="50" height="24" viewBox="0 0 50 24" fill="none" xmlns="http://www.w3.org/2000/svg">
<path d="M0.773915 11.2392L4.88745 1.23915C5.19586 0.489402 5.92637 0 6.73707 0H43.2617C44.0724 0 44.8029 0.489402 45.1113 1.23915L49.2249 11.2392C49.4254 11.7266 49.4254 12.2734 49.2249 12.7608L45.1113 22.7608C44.8029 23.5106 44.0724 24 43.2617 24H6.73707C5.92637 24 5.19586 23.5106 4.88745 22.7609L0.773915 12.7608C0.573414 12.2734 0.573414 11.7266 0.773915 11.2392Z" fill="#E5484D"/>
<path d="M15.6439 16L13.4719 9.808H14.4319L15.5119 12.88L16.1839 14.992H16.2439L16.9159 12.88L18.0199 9.808H18.9439L16.7599 16H15.6439ZM22.4284 16.144C22.0124 16.144 21.6324 16.068 21.2884 15.916C20.9444 15.764 20.6484 15.548 20.4004 15.268C20.1604 14.98 19.9724 14.64 19.8364 14.248C19.7004 13.848 19.6324 13.4 19.6324 12.904C19.6324 12.416 19.7004 11.972 19.8364 11.572C19.9724 11.172 20.1604 10.832 20.4004 10.552C20.6484 10.264 20.9444 10.044 21.2884 9.892C21.6324 9.74 22.0124 9.664 22.4284 9.664C22.8444 9.664 23.2204 9.74 23.5564 9.892C23.9004 10.044 24.1964 10.264 24.4444 10.552C24.6924 10.832 24.8844 11.172 25.0204 11.572C25.1564 11.972 25.2244 12.416 25.2244 12.904C25.2244 13.4 25.1564 13.848 25.0204 14.248C24.8844 14.64 24.6924 14.98 24.4444 15.268C24.1964 15.548 23.9004 15.764 23.5564 15.916C23.2204 16.068 22.8444 16.144 22.4284 16.144ZM22.4284 15.292C22.9484 15.292 23.3724 15.132 23.7004 14.812C24.0284 14.492 24.1924 14.004 24.1924 13.348V12.46C24.1924 11.804 24.0284 11.316 23.7004 10.996C23.3724 10.676 22.9484 10.516 22.4284 10.516C21.9084 10.516 21.4844 10.676 21.1564 10.996C20.8284 11.316 20.6644 11.804 20.6644 12.46V13.348C20.6644 14.004 20.8284 14.492 21.1564 14.812C21.4844 15.132 21.9084 15.292 22.4284 15.292ZM27.2832 8.356C27.0752 8.356 26.9232 8.308 26.8272 8.212C26.7392 8.108 26.6952 7.976 26.6952 7.816V7.66C26.6952 7.5 26.7392 7.372 26.8272 7.276C26.9232 7.172 27.0752 7.12 27.2832 7.12C27.4912 7.12 27.6392 7.172 27.7272 7.276C27.8232 7.372 27.8712 7.5 27.8712 7.66V7.816C27.8712 7.976 27.8232 8.108 27.7272 8.212C27.6392 8.308 27.4912 8.356 27.2832 8.356ZM26.8032 9.808H27.7632V16H26.8032V9.808ZM33.7632 14.992H33.7152C33.3392 15.76 32.7352 16.144 31.9032 16.144C31.5192 16.144 31.1712 16.068 30.8592 15.916C30.5472 15.764 30.2792 15.548 30.0552 15.268C29.8392 14.988 29.6712 14.648 29.5512 14.248C29.4392 13.848 29.3832 13.4 29.3832 12.904C29.3832 12.408 29.4392 11.96 29.5512 11.56C29.6712 11.16 29.8392 10.82 30.0552 10.54C30.2792 10.26 30.5472 10.044 30.8592 9.892C31.1712 9.74 31.5192 9.664 31.9032 9.664C32.3352 9.664 32.7032 9.76 33.0072 9.952C33.3192 10.136 33.5552 10.424 33.7152 10.816H33.7632V7.12H34.7232V16H33.7632V14.992ZM32.1672 15.28C32.3832 15.28 32.5872 15.252 32.7792 15.196C32.9792 15.14 33.1512 15.06 33.2952 14.956C33.4392 14.844 33.5512 14.712 33.6312 14.56C33.7192 14.4 33.7632 14.22 33.7632 14.02V11.716C33.7632 11.548 33.7192 11.392 33.6312 11.248C33.5512 11.096 33.4392 10.968 33.2952 10.864C33.1512 10.76 32.9792 10.68 32.7792 10.624C32.5872 10.56 32.3832 10.528 32.1672 10.528C31.6232 10.528 31.1952 10.7 30.8832 11.044C30.5712 11.38 30.4152 11.824 30.4152 12.376V13.432C30.4152 13.984 30.5712 14.432 30.8832 14.776C31.1952 15.112 31.6232 15.28 32.1672 15.28Z" fill="white"/>
</svg>
