<svg width="72" height="24" viewBox="0 0 72 24" fill="none" xmlns="http://www.w3.org/2000/svg">
<path d="M1.07076 10.9764L7.0283 0.976379C7.389 0.370924 8.04174 0 8.74649 0H63.2523C63.9571 0 64.6098 0.370923 64.9705 0.976378L70.928 10.9764C71.3038 11.6071 71.3038 12.3929 70.928 13.0236L64.9705 23.0236C64.6098 23.6291 63.9571 24 63.2523 24H8.74649C8.04174 24 7.389 23.6291 7.0283 23.0236L1.07076 13.0236C0.695025 12.3929 0.695025 11.6071 1.07076 10.9764Z" fill="#F5D90A"/>
<path d="M14.2954 16V9.808H15.2554V10.816H15.3034C15.3754 10.656 15.4554 10.508 15.5434 10.372C15.6394 10.228 15.7514 10.104 15.8794 10C16.0154 9.896 16.1714 9.816 16.3474 9.76C16.5234 9.696 16.7314 9.664 16.9714 9.664C17.3794 9.664 17.7554 9.764 18.0994 9.964C18.4434 10.156 18.6994 10.476 18.8674 10.924H18.8914C19.0034 10.588 19.2114 10.296 19.5154 10.048C19.8274 9.792 20.2474 9.664 20.7754 9.664C21.4074 9.664 21.8994 9.872 22.2514 10.288C22.6114 10.696 22.7914 11.276 22.7914 12.028V16H21.8314V12.196C21.8314 11.644 21.7234 11.228 21.5074 10.948C21.2914 10.668 20.9474 10.528 20.4754 10.528C20.2834 10.528 20.0994 10.552 19.9234 10.6C19.7554 10.648 19.6034 10.72 19.4674 10.816C19.3314 10.912 19.2234 11.036 19.1434 11.188C19.0634 11.332 19.0234 11.504 19.0234 11.704V16H18.0634V12.196C18.0634 11.644 17.9554 11.228 17.7394 10.948C17.5234 10.668 17.1874 10.528 16.7314 10.528C16.5394 10.528 16.3554 10.552 16.1794 10.6C16.0034 10.648 15.8474 10.72 15.7114 10.816C15.5754 10.912 15.4634 11.036 15.3754 11.188C15.2954 11.332 15.2554 11.504 15.2554 11.704V16H14.2954ZM25.252 8.356C25.044 8.356 24.892 8.308 24.796 8.212C24.708 8.108 24.664 7.976 24.664 7.816V7.66C24.664 7.5 24.708 7.372 24.796 7.276C24.892 7.172 25.044 7.12 25.252 7.12C25.46 7.12 25.608 7.172 25.696 7.276C25.792 7.372 25.84 7.5 25.84 7.66V7.816C25.84 7.976 25.792 8.108 25.696 8.212C25.608 8.308 25.46 8.356 25.252 8.356ZM24.772 9.808H25.732V16H24.772V9.808ZM31.732 14.992H31.684C31.308 15.76 30.704 16.144 29.872 16.144C29.488 16.144 29.14 16.068 28.828 15.916C28.516 15.764 28.248 15.548 28.024 15.268C27.808 14.988 27.64 14.648 27.52 14.248C27.408 13.848 27.352 13.4 27.352 12.904C27.352 12.408 27.408 11.96 27.52 11.56C27.64 11.16 27.808 10.82 28.024 10.54C28.248 10.26 28.516 10.044 28.828 9.892C29.14 9.74 29.488 9.664 29.872 9.664C30.304 9.664 30.672 9.76 30.976 9.952C31.288 10.136 31.524 10.424 31.684 10.816H31.732V7.12H32.692V16H31.732V14.992ZM30.136 15.28C30.352 15.28 30.556 15.252 30.748 15.196C30.948 15.14 31.12 15.06 31.264 14.956C31.408 14.844 31.52 14.712 31.6 14.56C31.688 14.4 31.732 14.22 31.732 14.02V11.716C31.732 11.548 31.688 11.392 31.6 11.248C31.52 11.096 31.408 10.968 31.264 10.864C31.12 10.76 30.948 10.68 30.748 10.624C30.556 10.56 30.352 10.528 30.136 10.528C29.592 10.528 29.164 10.7 28.852 11.044C28.54 11.38 28.384 11.824 28.384 12.376V13.432C28.384 13.984 28.54 14.432 28.852 14.776C29.164 15.112 29.592 15.28 30.136 15.28ZM38.6929 14.992H38.6449C38.2689 15.76 37.6649 16.144 36.8329 16.144C36.4489 16.144 36.1009 16.068 35.7889 15.916C35.4769 15.764 35.2089 15.548 34.9849 15.268C34.7689 14.988 34.6009 14.648 34.4809 14.248C34.3689 13.848 34.3129 13.4 34.3129 12.904C34.3129 12.408 34.3689 11.96 34.4809 11.56C34.6009 11.16 34.7689 10.82 34.9849 10.54C35.2089 10.26 35.4769 10.044 35.7889 9.892C36.1009 9.74 36.4489 9.664 36.8329 9.664C37.2649 9.664 37.6329 9.76 37.9369 9.952C38.2489 10.136 38.4849 10.424 38.6449 10.816H38.6929V7.12H39.6529V16H38.6929V14.992ZM37.0969 15.28C37.3129 15.28 37.5169 15.252 37.7089 15.196C37.9089 15.14 38.0809 15.06 38.2249 14.956C38.3689 14.844 38.4809 14.712 38.5609 14.56C38.6489 14.4 38.6929 14.22 38.6929 14.02V11.716C38.6929 11.548 38.6489 11.392 38.5609 11.248C38.4809 11.096 38.3689 10.968 38.2249 10.864C38.0809 10.76 37.9089 10.68 37.7089 10.624C37.5169 10.56 37.3129 10.528 37.0969 10.528C36.5529 10.528 36.1249 10.7 35.8129 11.044C35.5009 11.38 35.3449 11.824 35.3449 12.376V13.432C35.3449 13.984 35.5009 14.432 35.8129 14.776C36.1249 15.112 36.5529 15.28 37.0969 15.28ZM42.7138 16C42.3778 16 42.1218 15.908 41.9458 15.724C41.7778 15.532 41.6938 15.292 41.6938 15.004V7.12H42.6538V15.16H43.5658V16H42.7138ZM47.2914 16.144C46.8674 16.144 46.4834 16.068 46.1394 15.916C45.8034 15.764 45.5114 15.548 45.2634 15.268C45.0234 14.98 44.8354 14.64 44.6994 14.248C44.5714 13.848 44.5074 13.4 44.5074 12.904C44.5074 12.416 44.5714 11.972 44.6994 11.572C44.8354 11.172 45.0234 10.832 45.2634 10.552C45.5114 10.264 45.8034 10.044 46.1394 9.892C46.4834 9.74 46.8674 9.664 47.2914 9.664C47.7074 9.664 48.0794 9.74 48.4074 9.892C48.7354 10.044 49.0154 10.256 49.2474 10.528C49.4794 10.792 49.6554 11.108 49.7754 11.476C49.9034 11.844 49.9674 12.248 49.9674 12.688V13.144H45.5154V13.432C45.5154 13.696 45.5554 13.944 45.6354 14.176C45.7234 14.4 45.8434 14.596 45.9954 14.764C46.1554 14.932 46.3474 15.064 46.5714 15.16C46.8034 15.256 47.0634 15.304 47.3514 15.304C47.7434 15.304 48.0834 15.212 48.3714 15.028C48.6674 14.844 48.8954 14.58 49.0554 14.236L49.7394 14.728C49.5394 15.152 49.2274 15.496 48.8034 15.76C48.3794 16.016 47.8754 16.144 47.2914 16.144ZM47.2914 10.468C47.0274 10.468 46.7874 10.516 46.5714 10.612C46.3554 10.7 46.1674 10.828 46.0074 10.996C45.8554 11.164 45.7354 11.364 45.6474 11.596C45.5594 11.82 45.5154 12.068 45.5154 12.34V12.424H48.9354V12.292C48.9354 11.74 48.7834 11.3 48.4794 10.972C48.1834 10.636 47.7874 10.468 47.2914 10.468ZM53.6733 15.256V12.748H51.3333V11.932H53.6733V9.424H54.5853V11.932H56.9253V12.748H54.5853V15.256H53.6733Z" fill="#11181C"/>
</svg>
