<svg width="20" height="20" viewBox="0 0 20 20" fill="none" xmlns="http://www.w3.org/2000/svg">
<path d="M17.1581 3.23958H2.84191C2.42003 3.23958 2.01543 3.40717 1.71712 3.70549C1.41881 4.0038 1.25122 4.40839 1.25122 4.83027V15.1697C1.25122 15.5916 1.41881 15.9962 1.71712 16.2945C2.01543 16.5928 2.42003 16.7604 2.84191 16.7604H17.1581C17.58 16.7604 17.9846 16.5928 18.2829 16.2945C18.5812 15.9962 18.7488 15.5916 18.7488 15.1697V4.83027C18.7488 4.40839 18.5812 4.0038 18.2829 3.70549C17.9846 3.40717 17.58 3.23958 17.1581 3.23958ZM2.84191 15.1697V4.83027H9.20465V15.1697H2.84191ZM17.1581 15.1697H10.7953V4.83027H17.1581V15.1697ZM11.5907 7.61397H16.3627V8.80699H11.5907V7.61397ZM11.5907 9.60233H16.3627V10.7953H11.5907V9.60233ZM11.5907 11.5907H16.3627V12.7837H11.5907V11.5907Z" fill="#11181C"/>
</svg>
