<svg width="56" height="56" viewBox="0 0 56 56" fill="none" xmlns="http://www.w3.org/2000/svg">
<path d="M47.3482 50.6494L27.0342 30.3331H16.3335V25.6664H22.3675L17.7009 20.9998H16.3335C14.477 20.9998 12.6965 21.7373 11.3838 23.05C10.071 24.3628 9.33353 26.1432 9.33353 27.9998C9.33353 29.8563 10.071 31.6368 11.3838 32.9495C12.6965 34.2623 14.477 34.9998 16.3335 34.9998H23.3335V39.6664H16.3335C13.4933 39.6688 10.7498 38.6349 8.61739 36.7588C6.48501 34.8826 5.11028 32.2931 4.75098 29.4756C4.39168 26.6582 5.0725 23.8065 6.66576 21.4552C8.25902 19.104 10.6553 17.4147 13.4052 16.7041L5.3482 8.64943L8.64987 5.3501L50.6499 47.3501L47.3505 50.6471V50.6494H47.3482ZM46.9842 37.0834L43.6522 33.7538C44.8783 32.9043 45.801 31.6855 46.2858 30.2749C46.7705 28.8642 46.7921 27.3357 46.3472 25.912C45.9023 24.4883 45.0143 23.2439 43.8126 22.3603C42.611 21.4767 41.1584 21 39.6669 20.9998H32.6669V16.3331H39.6669C42.0807 16.3334 44.4349 17.0824 46.4052 18.4768C48.3755 19.8712 49.8647 21.8424 50.6677 24.1187C51.4706 26.3951 51.5478 28.8644 50.8885 31.1864C50.2292 33.5084 48.8659 35.5687 46.9865 37.0834H46.9842Z" fill="#CD2B31"/>
</svg>
