<svg width="20" height="20" viewBox="0 0 20 20" fill="none" xmlns="http://www.w3.org/2000/svg">
<path d="M16 10.5C16 9.67277 15.3273 9.00002 14.5 9.00002H13.75V6.75001C13.75 4.68226 12.0678 3 10 3C7.93226 3 6.25001 4.68226 6.25001 6.75001V9.00002H5.50001C4.67275 9.00002 4 9.67277 4 10.5V16.5C4 17.3273 4.67275 18.0001 5.50001 18.0001H14.5C15.3273 18.0001 16 17.3273 16 16.5V10.5ZM7.75001 6.75001C7.75001 5.50951 8.75952 4.50001 10 4.50001C11.2405 4.50001 12.25 5.50951 12.25 6.75001V9.00002H7.75001V6.75001Z" fill="#C1C8CD"/>
</svg>
