<svg width="20" height="20" viewBox="0 0 20 20" fill="none" xmlns="http://www.w3.org/2000/svg">
<path d="M14.7083 5.29167C14.0916 4.67071 13.358 4.17797 12.5499 3.84186C11.7418 3.50575 10.8752 3.33292 10 3.33333C6.31667 3.33333 3.34167 6.31667 3.34167 10C3.34167 13.6833 6.31667 16.6667 10 16.6667C13.1083 16.6667 15.7 14.5417 16.4417 11.6667H14.7083C14.3651 12.6413 13.7278 13.4853 12.8845 14.0824C12.0411 14.6794 11.0333 15 10 15C7.24167 15 5.00001 12.7583 5.00001 10C5.00001 7.24167 7.24167 5 10 5C11.3833 5 12.6167 5.575 13.5167 6.48333L10.8333 9.16667H16.6667V3.33333L14.7083 5.29167Z" fill="#11181C"/>
</svg>
