<svg width="20" height="20" viewBox="0 0 20 20" fill="none" xmlns="http://www.w3.org/2000/svg">
<path d="M14.1667 14.1667H11.6667V12.5H14.1667C14.8297 12.5 15.4656 12.2366 15.9344 11.7678C16.4033 11.2989 16.6667 10.6631 16.6667 10C16.6667 9.33697 16.4033 8.70108 15.9344 8.23224C15.4656 7.7634 14.8297 7.50001 14.1667 7.50001H11.6667V5.83334H14.1667C15.2717 5.83334 16.3315 6.27233 17.1129 7.05373C17.8943 7.83513 18.3333 8.89494 18.3333 10C18.3333 11.1051 17.8943 12.1649 17.1129 12.9463C16.3315 13.7277 15.2717 14.1667 14.1667 14.1667ZM8.33332 14.1667H5.83332C4.72825 14.1667 3.66845 13.7277 2.88704 12.9463C2.10564 12.1649 1.66666 11.1051 1.66666 10C1.66666 8.89494 2.10564 7.83513 2.88704 7.05373C3.66845 6.27233 4.72825 5.83334 5.83332 5.83334H8.33332V7.50001H5.83332C5.17028 7.50001 4.5344 7.7634 4.06556 8.23224C3.59672 8.70108 3.33332 9.33697 3.33332 10C3.33332 10.6631 3.59672 11.2989 4.06556 11.7678C4.5344 12.2366 5.17028 12.5 5.83332 12.5H8.33332V14.1667ZM14.1667 10.8333H5.83332V9.16668H14.1667V10.8333Z" fill="#11181C"/>
</svg>
