<svg width="4" height="13" viewBox="0 0 4 13" fill="none" xmlns="http://www.w3.org/2000/svg">
<path d="M3.2642 0.363636L3.04261 8.51136H0.963068L0.735795 0.363636H3.2642ZM2.00284 12.1477C1.62784 12.1477 1.30587 12.0152 1.03693 11.75C0.767992 11.4811 0.635417 11.1591 0.639205 10.7841C0.635417 10.4129 0.767992 10.0947 1.03693 9.82955C1.30587 9.56439 1.62784 9.43182 2.00284 9.43182C2.36269 9.43182 2.67898 9.56439 2.9517 9.82955C3.22443 10.0947 3.36269 10.4129 3.36648 10.7841C3.36269 11.0341 3.2964 11.2633 3.16761 11.4716C3.04261 11.6761 2.87784 11.8409 2.6733 11.9659C2.46875 12.0871 2.24527 12.1477 2.00284 12.1477Z" fill="#CD2B31"/>
</svg>
